<?xml version="1.0" standalone="no"?>
<!DOCTYPE svg PUBLIC "-//W3C//DTD SVG 20010904//EN"
 "http://www.w3.org/TR/2001/REC-SVG-20010904/DTD/svg10.dtd">
<svg version="1.0" xmlns="http://www.w3.org/2000/svg"
 width="92.000000pt" height="81.000000pt" viewBox="0 0 92.000000 81.000000"
 preserveAspectRatio="xMidYMid meet">

<g transform="translate(0.000000,81.000000) scale(0.100000,-0.100000)"
fill="#000000" stroke="none">
<path d="M433 769 c-6 -20 -26 -93 -44 -164 l-34 -127 -175 6 -175 7 135 -82
c74 -44 139 -84 143 -88 4 -4 -9 -50 -29 -102 -19 -52 -47 -123 -60 -158 l-24
-63 42 34 c158 127 215 171 226 175 7 3 75 -43 153 -102 128 -98 139 -104 126
-73 -8 18 -38 89 -67 157 -63 145 -74 121 100 213 179 95 181 88 -25 86 l-179
-3 -51 160 c-51 157 -52 159 -62 124z m27 -299 l12 -50 56 0 57 0 -40 -26
c-22 -15 -43 -30 -48 -34 -4 -3 -1 -26 8 -49 22 -65 19 -69 -24 -27 l-39 38
-41 -37 c-23 -21 -41 -35 -41 -32 0 2 7 24 15 47 8 23 15 46 15 50 0 5 -19 22
-41 39 l-41 30 53 3 54 3 9 48 c5 26 13 47 17 47 4 0 12 -22 19 -50z"/>
</g>
</svg>
